# xmcd
#
# Track frame offsets:
#	150
#	18082
#	40387
#	65867
#	81210
#	96292
#	110497
#	131627
#	147425
#	168175
#	195820
#	211425
#	231130
#	241832
#	253572
#	266590
#	281747
#	302245
#	321617
#	341352
#
# Disc length: 4772 seconds
#
# Revision: 0
# Processed by: cddbd v1.5.1PL2 Copyright (c) Steve Scherf et al.
# Submitted via: EasyCDDAExtractor 9.0.0.1
#
DISCID=2612a214
DTITLE=Various Artist - WEST COAST BLUES
DYEAR=1998
DGENRE=Blues
TTITLE0=Robert CRAY - The forecast (calls for pain) - 1990
TTITLE1=CANNED HEAT - On the road again - 1981
TTITLE2=John HAMMOND - Honey bees (sail on) - 1987
TTITLE3=Frank HOVINGTON - Mean old Frisco - 1975
TTITLE4=Ted HAWKINS - Gypsy woman - 1986
TTITLE5=Lowel FULSON - Reconsider baby - 1954
TTITLE6=James TAYLOR - Steamroller (live) - 1970
TTITLE7=LITTLE FEAT - Oh Atlanta - 1974
TTITLE8=Robben FORD - Ain't got nothing but the blues - 1988
TTITLE9=Joe Louis WALKER - Mile-hi club - 1997
TTITLE10=Taj MAHAL - Lonely avenue - 1996
TTITLE11=Roy ROGERS - Vida's place - 1996
TTITLE12=Charles BROWN - PLease don't drive me away - 1955
TTITLE13=Johnny OTIS - Willie and the hand jive - 1950
TTITLE14=J.J. CALE - Cocaïne - 1976
TTITLE15=Alvin YOUNGBLOOD HART - France blues - 1996
TTITLE16=KEB' MO - More than one way home - 1996
TTITLE17=HOT TUNA - San Francisco bay blues - 1990
TTITLE18=Elvin BISHOP - Another mule kickin' in your stall - 1995
TTITLE19=Tommy CASTRO - This soul is mine - 1995
EXTD=
EXTT0=
EXTT1=
EXTT2=
EXTT3=
EXTT4=
EXTT5=
EXTT6=
EXTT7=
EXTT8=
EXTT9=
EXTT10=
EXTT11=
EXTT12=
EXTT13=
EXTT14=
EXTT15=
EXTT16=
EXTT17=
EXTT18=
EXTT19=
PLAYORDER=
